# xmcd
#
# Track frame offsets: 
#        150
#        10661
#        22504
#        33636
#        43686
#        56046
#        68104
#        78191
#        90554
#        100959
#        109989
#        121214
#        135438
#        146503
#        157751
#        166518
#        176893
#        186083
#
# Disc length: 2603 seconds
#
# Revision: 0
# Processed by: cddbd v1.5.2PL0 Copyright (c) Steve Scherf et al.
# Submitted via: ExactAudioCopy v1.3
#
DISCID=d90a2912
DTITLE=Buck Owens - All-Time Greatest Hits
DYEAR=2018
DGENRE=Country
TTITLE0=Act Naturally
TTITLE1=Streets Of Bakersfield
TTITLE2=Together Again
TTITLE3=Before You Go
TTITLE4=Made In Japan
TTITLE5=Foolin' Around
TTITLE6=I've Got A Tiger By The Tail
TTITLE7=Under Your Spell Again
TTITLE8=Think Of Me
TTITLE9=Love's Gonna Live Here
TTITLE10=Excuse Me (I Think I've Got A Heartache)
TTITLE11=Big In Vegas
TTITLE12=Above And Beyond
TTITLE13=Open Up Your Heart
TTITLE14=Gonna Have Love
TTITLE15=Waitin' In Your Welfare Line
TTITLE16=Sam's Place
TTITLE17=Buckaroo
EXTD=
EXTT0=
EXTT1=
EXTT2=
EXTT3=
EXTT4=
EXTT5=
EXTT6=
EXTT7=
EXTT8=
EXTT9=
EXTT10=
EXTT11=
EXTT12=
EXTT13=
EXTT14=
EXTT15=
EXTT16=
EXTT17=
PLAYORDER=
